<svg xmlns="http://www.w3.org/2000/svg" viewBox="0 0 512 512" style="height: 512px; width: 512px;"><defs><filter id="shadow-1" height="300%" width="300%" x="-100%" y="-100%"><feFlood flood-color="rgba(208, 2, 27, 1)" result="flood"></feFlood><feComposite in="flood" in2="SourceGraphic" operator="atop" result="composite"></feComposite><feGaussianBlur in="composite" stdDeviation="22" result="blur"></feGaussianBlur><feOffset dx="0" dy="0" result="offset"></feOffset><feComposite in="SourceGraphic" in2="offset" operator="over"></feComposite></filter></defs><g class="" transform="translate(0,0)" style=""><g><path d="M256 32C192 80 128 96 32 128C32 256 192 448 256 496C320 448 480 256 480 128C384 96 320 80 256 32Z" class="" fill="#50e3c2" fill-opacity="1" stroke="#000000" stroke-opacity="1" stroke-width="8"></path><path d="M256 66.75L261.4 70.8C311.1 108.1 361 120.7 438.1 146.4L444.3 148.4L444.3 154.9C444.3 209.9 411.2 274.6 372.3 331.3C333.4 388.1 288.7 436.3 261.4 456.8L256 460.9L250.6 456.8C223.3 436.3 178.6 388.1 139.7 331.3C100.8 274.6 67.7 209.9 67.7 154.9L67.7 148.4L73.85 146.4C150.9 120.7 200.9 108 250.6 70.8L256 66.75Z" class="" fill="#92afd1" fill-opacity="1" stroke="#000000" stroke-opacity="1" stroke-width="8"></path><path d="M256 88.93C206.6 124.3 156.2 138.1 85.95 161.3C88.53 208 118.3 268.3 154.6 321.2C189.9 372.7 231.2 417.5 256 438C280.8 417.5 322.1 372.7 357.4 321.2C393.7 268.3 423.5 208 426 161.3C355.7 138.1 305.4 124.3 256 88.93Z" class="" fill="#92afd1" fill-opacity="1" stroke="#000000" stroke-opacity="1" stroke-width="8"></path><path d="M210.5 143.9C230.2 144.4 248.6 158.3 256 192C274 105.7 366 149.5 366 214.5C365 278.4 274 322.2 256 376.6C237 322.2 148 278.4 146 214.5C146 174.9 179.8 143.2 210.5 143.9Z" class="selected" fill="#4a90e2" fill-opacity="1" stroke="#000000" stroke-opacity="1" stroke-width="8"></path></g></g></svg>